<?xml version="1.0" encoding="utf-8"?>
<!-- Generator: Adobe Illustrator 22.0.1, SVG Export Plug-In . SVG Version: 6.00 Build 0)  -->
<svg version="1.1" id="Layer_1" xmlns="http://www.w3.org/2000/svg" xmlns:xlink="http://www.w3.org/1999/xlink" x="0px" y="0px"
	 viewBox="0 0 162.3 42.7" style="enable-background:new 0 0 162.3 42.7;" xml:space="preserve">
<style type="text/css">
	.st0{fill:#808080;}
	.st1{fill:#9A9899;}
	.st2{fill:#FFFFFF;}
</style>
<g>
	<rect class="st0" width="162.3" height="42.7"/>
	<rect x="128.2" class="st1" width="34.1" height="42.7"/>
	<g>
		<path class="st2" d="M44.9,13.6v6h5.8v-6h3.5v15.5h-3.5v-6.5h-5.8v6.5h-3.5V13.6H44.9z"/>
		<path class="st2" d="M60.8,13.6v15.5h-3.5V13.6H60.8z"/>
		<path class="st2" d="M63.8,13.8c1.3-0.2,3-0.3,4.7-0.3c2.9,0,4.9,0.5,6.4,1.7c1.6,1.2,2.6,3.1,2.6,5.9c0,3-1.1,5-2.6,6.3
			c-1.6,1.4-4.1,2-7.2,2c-1.8,0-3.1-0.1-4-0.2V13.8z M67.4,26.5c0.3,0.1,0.8,0.1,1.2,0.1c3.2,0,5.3-1.7,5.3-5.4
			c0-3.2-1.9-4.9-4.9-4.9c-0.8,0-1.3,0.1-1.6,0.1V26.5z"/>
		<path class="st2" d="M89.1,22.5h-5.7v3.7h6.4v2.9h-9.9V13.6h9.6v2.9h-6.1v3.2h5.7V22.5z"/>
	</g>
</g>
<g>
	<path class="st2" d="M149.4,29.6l-2.1-3.7c-0.9-1.4-1.4-2.3-1.9-3.3h0c-0.5,1-0.9,1.9-1.8,3.3l-2,3.7H139l5.1-8.5l-4.9-8.3h2.5
		l2.2,3.9c0.6,1.1,1.1,1.9,1.5,2.8h0.1c0.5-1,0.9-1.8,1.5-2.8l2.3-3.9h2.5l-5.1,8.2l5.2,8.6H149.4z"/>
</g>
</svg>
