<?xml version="1.0" encoding="utf-8"?>
<!-- Generator: Adobe Illustrator 22.0.1, SVG Export Plug-In . SVG Version: 6.00 Build 0)  -->
<svg version="1.1" id="Layer_1" xmlns="http://www.w3.org/2000/svg" xmlns:xlink="http://www.w3.org/1999/xlink" x="0px" y="0px"
	 viewBox="0 0 162.3 42.7" style="enable-background:new 0 0 162.3 42.7;" xml:space="preserve">
<style type="text/css">
	.st0{fill:#808080;}
	.st1{fill:#9A9899;}
	.st2{fill:#FFFFFF;}
</style>
<g>
	<rect class="st0" width="162.3" height="42.7"/>
	<rect x="128.2" class="st1" width="34.1" height="42.7"/>
	<g>
		<path class="st2" d="M34.3,25.5c0.9,0.5,2.4,1,3.9,1c1.6,0,2.5-0.7,2.5-1.7c0-1-0.7-1.5-2.6-2.2c-2.6-0.9-4.3-2.3-4.3-4.6
			c0-2.6,2.2-4.7,5.9-4.7c1.8,0,3,0.4,4,0.8l-0.8,2.8c-0.6-0.3-1.7-0.7-3.2-0.7c-1.5,0-2.3,0.7-2.3,1.5c0,1,0.9,1.4,2.9,2.2
			c2.7,1,4,2.4,4,4.6c0,2.6-2,4.8-6.3,4.8c-1.8,0-3.5-0.5-4.4-0.9L34.3,25.5z"/>
		<path class="st2" d="M50.2,13.6v6H56v-6h3.5v15.5H56v-6.5h-5.8v6.5h-3.5V13.6H50.2z"/>
		<path class="st2" d="M76.8,21.2c0,5.1-3.1,8.2-7.6,8.2c-4.6,0-7.3-3.5-7.3-7.9c0-4.7,3-8.1,7.6-8.1C74.2,13.3,76.8,16.9,76.8,21.2
			z M65.5,21.4c0,3,1.4,5.2,3.8,5.2c2.4,0,3.7-2.3,3.7-5.3c0-2.8-1.3-5.2-3.8-5.2C66.9,16.1,65.5,18.4,65.5,21.4z"/>
		<path class="st2" d="M81.4,29.1l-3.7-15.5h3.8l1.2,6.4c0.3,1.8,0.7,3.8,0.9,5.4h0c0.3-1.7,0.6-3.5,1-5.5l1.3-6.4h3.7l1.2,6.5
			c0.3,1.8,0.6,3.5,0.8,5.2h0c0.2-1.7,0.6-3.5,0.9-5.4l1.3-6.4h3.6l-4,15.5h-3.8l-1.3-6.7c-0.3-1.6-0.6-3-0.7-4.8h0
			c-0.3,1.8-0.5,3.2-0.9,4.8l-1.5,6.7H81.4z"/>
	</g>
</g>
<g>
	<path class="st2" d="M149.4,29.6l-2.1-3.7c-0.9-1.4-1.4-2.3-1.9-3.3h0c-0.5,1-0.9,1.9-1.8,3.3l-2,3.7H139l5.1-8.5l-4.9-8.3h2.5
		l2.2,3.9c0.6,1.1,1.1,1.9,1.5,2.8h0.1c0.5-1,0.9-1.8,1.5-2.8l2.3-3.9h2.5l-5.1,8.2l5.2,8.6H149.4z"/>
</g>
</svg>
